PathFileType	4	(X/Y/Z)	F:\MotionCapture\20160217\3\Generated_files\2_Test02-Dynamic.trc
DataRate	CameraRate	NumFrames	NumMarkers	Units	OrigDataRate	OrigDataStartFrame	OrigNumFrames
120.00	120.00	       6	39	mm	120.00	471	       627
Frame#	Time	Top.Head			Front.Head			Rear.Head			R.Shoulder			R.Offset			R.Elbow			R.Wrist			L.Shoulder			L.Elbow			L.Wrist			R.ASIS			L.ASIS			V.Sacral			R.Thigh			R.Knee			R.Shank			R.Ankle			R.Heel			R.Toe			L.Thigh			L.Knee			L.Shank			L.Ankle			L.Heel			L.Toe			R1			R2			R3			R4			R5			R6			R7			L1			L2			L3			L4			L5			L6			L7			V_Mid_ASIS			V_Pelvis_Origin			V_R.Hip_JC			V_L.Hip_JC			V_R.Knee_JC			V_L.Knee_JC			V_R.Ankle_JC			V_L.Ankle_JC			V_Mid_Hip			V_Mid_Shoulder			V_R.Hand			V_L.Hand			V_R.Toe_Offset_Static			V_L.Toe_Offset_Static			V_R.Toe_Offset			V_L.Toe_Offset			
		X1	Y1	Z1	X2	Y2	Z2	X3	Y3	Z3	X4	Y4	Z4	X5	Y5	Z5	X6	Y6	Z6	X7	Y7	Z7	X8	Y8	Z8	X9	Y9	Z9	X10	Y10	Z10	X11	Y11	Z11	X12	Y12	Z12	X13	Y13	Z13	X14	Y14	Z14	X15	Y15	Z15	X16	Y16	Z16	X17	Y17	Z17	X18	Y18	Z18	X19	Y19	Z19	X20	Y20	Z20	X21	Y21	Z21	X22	Y22	Z22	X23	Y23	Z23	X24	Y24	Z24	X25	Y25	Z25	X26	Y26	Z26	X27	Y27	Z27	X28	Y28	Z28	X29	Y29	Z29	X30	Y30	Z30	X31	Y31	Z31	X32	Y32	Z32	X33	Y33	Z33	X34	Y34	Z34	X35	Y35	Z35	X36	Y36	Z36	X37	Y37	Z37	X38	Y38	Z38	X39	Y39	Z39	

471	3.917	-3196.73926	-4.77070	1698.98108	-3172.43042	105.73856	1635.42969				-3214.13721	235.90248	1415.96948	-2976.42627	62.46310	1250.06116	-3256.59961	347.62283	1096.91980				-3040.54517	-127.76074	1406.75354	-2934.30981	-194.95667	1094.55713	-3010.08667	-244.48897	851.74231							-2993.44189	87.87647	916.09851				-3293.71777	245.65784	469.68106	-3147.67725	200.24779	278.50739	-2991.35571	281.05676	205.70462	-2929.34790	214.52158	221.94460	-3070.90112	276.96396	83.88446	-3401.68945	530.78778	236.66924							-3218.97852	2.01256	54.23697	-3187.53027	84.42372	47.82480	-3355.09644	-43.26377	35.89429	-3108.18384	266.44431	57.81412	-3081.67896	241.66364	80.50341	-3024.92358	200.09756	150.60582	-2962.19873	190.06674	191.02116	-2949.03491	262.24582	206.87389	-2997.18335	295.67496	148.23778	-3039.20337	310.85791	101.90195	-3412.85132	-34.77380	28.89900	-3381.07056	-10.77588	40.28546				-3230.04688	94.90121	45.06588	-3191.82007	33.18241	36.97344	-3251.83423	-19.60903	31.77941	-3302.99023	-56.51189	35.64507																																																	-3007.83203	338.34421	79.20234	
472	3.925	-3202.07275	-6.30741	1700.94299	-3179.67920	104.89206	1637.90466							-2983.24194	60.31588	1251.98010	-3264.89575	344.17285	1098.67664				-3045.23047	-129.35974	1409.51379	-2939.83447	-195.37469	1096.33362	-3020.15381	-247.84506	856.09070							-2998.42285	88.54570	919.79468				-3308.36060	238.75208	472.75272	-3168.12549	195.89908	277.47095	-3014.55933	277.34531	199.09959	-2951.38379	212.77690	212.61879	-3100.65918	272.53040	82.34064				-3313.47144	401.46826	87.70082				-3218.80957	2.24227	54.34705	-3187.54590	84.39696	47.77747	-3355.09741	-43.40298	35.93068	-3138.83789	260.93842	57.83157	-3111.03101	236.82152	79.17216				-2985.15137	186.88156	183.65324	-2972.26660	259.50616	199.15799	-3023.79004	291.66330	142.13205	-3070.51953	306.03647	98.52180	-3412.88110	-34.84512	28.87052	-3381.21924	-11.88279	39.86124	-3308.68091	63.52713	48.89308	-3230.26807	94.79831	45.42524	-3191.73193	33.70888	37.20285	-3251.68115	-19.58150	31.62961	-3302.90747	-56.51908	35.57387																																																	-3056.49463	308.25278	54.26578	-3044.78296	336.25043	1.85785	
473	3.933	-3208.20044	-8.32470	1702.42590	-3186.86182	101.53626	1639.44153				-3231.81421	229.86055	1419.51489	-2990.12646	59.95103	1254.07007	-3271.92529	341.05139	1099.88232				-3049.92749	-129.53883	1411.38269	-2944.98364	-196.38672	1098.48926	-3029.62476	-251.19011	860.32941							-3008.40332	89.12789	920.63367				-3321.99634	233.69936	478.21484	-3184.24438	194.62933	274.46860	-3039.69751	274.33264	192.58636	-2974.08472	210.70813	202.04086	-3131.38330	265.38165	80.42686	-2421.42065	-446.16556	1665.99609				-3403.52271	504.09882	252.49542				-3184.57153	78.52990	40.81076	-3355.32593	-43.45935	36.67412	-3169.75293	254.90195	57.12291	-3140.62866	231.39992	77.54144	-3075.34814	191.88803	140.37790	-3008.86450	185.77292	173.99208	-2996.62280	256.71762	190.33972	-3051.67334	288.41956	135.60603	-3099.84106	302.06573	94.16518	-3412.86646	-34.91686	28.90821	-3381.22876	-12.00786	39.85268	-3308.79150	63.44519	48.96483	-3230.27100	95.97856	45.99131	-3191.74097	33.91028	37.23602	-3251.66431	-19.45126	31.69006	-3302.88647	-56.64615	35.62476																																																	-3311.42822	376.10016	103.87843	-3075.55884	332.34433	-1.66330	-2913.95898	190.75706	-142.02655	
474	3.942	-3214.22583	-11.91635	1704.81140	-3193.98853	99.29192	1640.71887				-3240.78809	226.69922	1420.59521	-2996.78223	57.93545	1255.87842	-3279.14111	336.85904	1100.97583				-3056.58862	-132.03700	1414.11121	-2950.37769	-197.06795	1100.19312	-3038.22461	-252.52394	863.28009							-3015.42749	88.55394	922.77069				-3335.34961	227.52122	480.95728				-3065.16699	270.67752	184.06061	-2997.59521	208.21220	190.99026	-3161.20361	261.38654	77.34068				-2447.96240	-440.40625	1664.31641							-3184.60645	78.58288	40.80152	-3355.83862	-43.85657	37.63595	-3203.43628	248.83586	55.43832	-3170.53052	226.05493	75.29205	-3101.12427	187.75217	134.53134	-3035.06372	182.06551	168.71274	-3021.97144	254.46254	181.13202	-3079.56519	284.35156	128.28981	-3130.23804	296.96265	90.09530	-3412.84375	-34.98873	28.90523	-3381.13745	-12.08063	39.82778	-3308.95947	63.40501	48.97965	-3230.49707	96.15823	46.03682	-3192.16968	33.72334	37.37002	-3251.77612	-19.42232	31.83044	-3302.75562	-56.60556	35.56685																																																	-3244.18945	-79.13741	456.54340	-3370.49390	162.37746	-4.72648	-3313.75635	391.14691	93.49783	
475	3.950	-3219.99194	-12.45990	1706.18750	-3200.94556	97.49683	1642.53308				-3249.93555	223.21983	1422.21216	-3003.97070	58.23403	1258.08386	-3286.58521	333.38599	1101.96753				-3059.39600	-132.84161	1416.54822	-2955.38818	-197.51381	1102.38147	-3047.15234	-255.93410	867.42419							-3022.15161	90.19584	924.88202				-3348.42700	220.86961	483.28726				-3091.11938	266.93829	175.45581	-3021.37476	204.93829	179.85631	-3193.51978	255.79871	73.53283	-3246.26123	-79.53830	456.19104				-3289.51758	240.56187	211.49481				-3184.73242	78.75626	40.84381	-3355.18896	-43.61335	36.60186	-3235.16919	242.37921	54.40810	-3202.74976	219.93002	72.15749	-3127.52295	183.26064	128.71547	-3068.66284	175.93399	155.04053	-3047.32104	251.07722	170.38213	-3107.92334	281.04337	120.65430	-3160.63330	291.64417	84.45188	-3412.82788	-35.12214	28.94396	-3381.14160	-12.16024	39.79585	-3309.09521	63.38327	48.99643	-3230.59375	96.15257	46.04007	-3191.84033	34.17063	37.48197	-3251.74243	-19.42434	31.74221	-3302.78442	-56.69323	35.62842	
476	3.958	-3226.02563	-14.90500	1707.71887	-3208.11597	96.44476	1643.91748				-3258.82153	218.66122	1423.26514	-3010.87695	56.17200	1259.05676	-3293.39551	329.08899	1103.39478				-3064.79370	-134.14044	1419.24841	-2960.45044	-197.80518	1103.52588	-3055.23267	-258.39276	870.73688							-3029.66919	89.75227	926.94037				-3361.23706	213.93681	485.37000				-3116.29980	263.67172	166.23735	-3046.14282	203.41847	167.53215	-3224.67700	249.56975	70.39886				-3253.20093	-77.99802	454.69870							-3184.78979	78.81724	40.99331	-3354.99707	-43.65815	35.91045	-3267.17676	235.59254	53.37225	-3233.63965	213.53111	69.92321	-3153.98926	178.85818	122.25631	-3083.10986	174.36865	146.84175	-3072.30420	246.87236	157.23227	-3137.09204	275.99527	112.29440	-3191.70410	285.80264	79.32507	-3412.85034	-35.28133	28.84862	-3381.23901	-12.24103	39.82673	-3309.39819	62.00865	49.21722	-3230.48462	95.39528	43.86591	-3192.18115	33.96789	37.76938	-3251.73804	-19.22502	31.78399	-3302.74634	-56.72100	35.58500																																																	-3318.26343	401.86417	84.34510	
